%TF.GenerationSoftware,KiCad,Pcbnew,9.0.3*%
%TF.CreationDate,2026-05-24T18:33:45+06:00*%
%TF.ProjectId,STM32_1st_Project,53544d33-325f-4317-9374-5f50726f6a65,rev?*%
%TF.SameCoordinates,Original*%
%TF.FileFunction,Paste,Top*%
%TF.FilePolarity,Positive*%
%FSLAX46Y46*%
G04 Gerber Fmt 4.6, Leading zero omitted, Abs format (unit mm)*
G04 Created by KiCad (PCBNEW 9.0.3) date 2026-05-24 18:33:45*
%MOMM*%
%LPD*%
G01*
G04 APERTURE LIST*
G04 Aperture macros list*
%AMRoundRect*
0 Rectangle with rounded corners*
0 $1 Rounding radius*
0 $2 $3 $4 $5 $6 $7 $8 $9 X,Y pos of 4 corners*
0 Add a 4 corners polygon primitive as box body*
4,1,4,$2,$3,$4,$5,$6,$7,$8,$9,$2,$3,0*
0 Add four circle primitives for the rounded corners*
1,1,$1+$1,$2,$3*
1,1,$1+$1,$4,$5*
1,1,$1+$1,$6,$7*
1,1,$1+$1,$8,$9*
0 Add four rect primitives between the rounded corners*
20,1,$1+$1,$2,$3,$4,$5,0*
20,1,$1+$1,$4,$5,$6,$7,0*
20,1,$1+$1,$6,$7,$8,$9,0*
20,1,$1+$1,$8,$9,$2,$3,0*%
G04 Aperture macros list end*
%ADD10R,0.800000X1.000000*%
%ADD11R,1.500000X0.700000*%
%ADD12RoundRect,0.140000X0.140000X0.170000X-0.140000X0.170000X-0.140000X-0.170000X0.140000X-0.170000X0*%
%ADD13RoundRect,0.075000X-0.075000X-0.662500X0.075000X-0.662500X0.075000X0.662500X-0.075000X0.662500X0*%
%ADD14RoundRect,0.075000X-0.662500X-0.075000X0.662500X-0.075000X0.662500X0.075000X-0.662500X0.075000X0*%
%ADD15RoundRect,0.375000X-0.375000X0.625000X-0.375000X-0.625000X0.375000X-0.625000X0.375000X0.625000X0*%
%ADD16RoundRect,0.500000X-1.400000X0.500000X-1.400000X-0.500000X1.400000X-0.500000X1.400000X0.500000X0*%
%ADD17RoundRect,0.140000X0.170000X-0.140000X0.170000X0.140000X-0.170000X0.140000X-0.170000X-0.140000X0*%
%ADD18RoundRect,0.250000X-0.350000X0.450000X-0.350000X-0.450000X0.350000X-0.450000X0.350000X0.450000X0*%
%ADD19RoundRect,0.135000X0.135000X0.185000X-0.135000X0.185000X-0.135000X-0.185000X0.135000X-0.185000X0*%
%ADD20RoundRect,0.135000X-0.135000X-0.185000X0.135000X-0.185000X0.135000X0.185000X-0.135000X0.185000X0*%
%ADD21RoundRect,0.135000X-0.185000X0.135000X-0.185000X-0.135000X0.185000X-0.135000X0.185000X0.135000X0*%
%ADD22RoundRect,0.135000X0.185000X-0.135000X0.185000X0.135000X-0.185000X0.135000X-0.185000X-0.135000X0*%
%ADD23R,1.300000X0.450000*%
%ADD24RoundRect,0.218750X-0.256250X0.218750X-0.256250X-0.218750X0.256250X-0.218750X0.256250X0.218750X0*%
%ADD25RoundRect,0.250000X0.475000X-0.250000X0.475000X0.250000X-0.475000X0.250000X-0.475000X-0.250000X0*%
%ADD26RoundRect,0.250000X-0.250000X-0.475000X0.250000X-0.475000X0.250000X0.475000X-0.250000X0.475000X0*%
%ADD27RoundRect,0.140000X-0.140000X-0.170000X0.140000X-0.170000X0.140000X0.170000X-0.140000X0.170000X0*%
%ADD28RoundRect,0.225000X-0.225000X-0.250000X0.225000X-0.250000X0.225000X0.250000X-0.225000X0.250000X0*%
%ADD29RoundRect,0.140000X-0.170000X0.140000X-0.170000X-0.140000X0.170000X-0.140000X0.170000X0.140000X0*%
G04 APERTURE END LIST*
D10*
%TO.C,SW1*%
X93150000Y-66450000D03*
X90940000Y-66450000D03*
X93150000Y-73750000D03*
X90940000Y-73750000D03*
D11*
X93800000Y-67850000D03*
X93800000Y-70850000D03*
X93800000Y-72350000D03*
%TD*%
D12*
%TO.C,C5*%
X111400000Y-80650000D03*
X112360000Y-80650000D03*
%TD*%
D13*
%TO.C,U1*%
X106250000Y-70405000D03*
X106750000Y-70405000D03*
X107250000Y-70405000D03*
X107750000Y-70405000D03*
X108250000Y-70405000D03*
X108750000Y-70405000D03*
X109250000Y-70405000D03*
X109750000Y-70405000D03*
X110250000Y-70405000D03*
X110750000Y-70405000D03*
X111250000Y-70405000D03*
X111750000Y-70405000D03*
D14*
X113162500Y-71817500D03*
X113162500Y-72317500D03*
X113162500Y-72817500D03*
X113162500Y-73317500D03*
X113162500Y-73817500D03*
X113162500Y-74317500D03*
X113162500Y-74817500D03*
X113162500Y-75317500D03*
X113162500Y-75817500D03*
X113162500Y-76317500D03*
X113162500Y-76817500D03*
X113162500Y-77317500D03*
D13*
X111750000Y-78730000D03*
X111250000Y-78730000D03*
X110750000Y-78730000D03*
X110250000Y-78730000D03*
X109750000Y-78730000D03*
X109250000Y-78730000D03*
X108750000Y-78730000D03*
X108250000Y-78730000D03*
X107750000Y-78730000D03*
X107250000Y-78730000D03*
X106750000Y-78730000D03*
X106250000Y-78730000D03*
D14*
X104837500Y-77317500D03*
X104837500Y-76817500D03*
X104837500Y-76317500D03*
X104837500Y-75817500D03*
X104837500Y-75317500D03*
X104837500Y-74817500D03*
X104837500Y-74317500D03*
X104837500Y-73817500D03*
X104837500Y-73317500D03*
X104837500Y-72817500D03*
X104837500Y-72317500D03*
X104837500Y-71817500D03*
%TD*%
D15*
%TO.C,U2*%
X114950000Y-79350000D03*
D16*
X117250000Y-85650000D03*
D15*
X117250000Y-79350000D03*
X119550000Y-79350000D03*
%TD*%
D17*
%TO.C,C13*%
X100850000Y-73770000D03*
X100850000Y-74730000D03*
%TD*%
D18*
%TO.C,Y1*%
X97650000Y-72150000D03*
X97650000Y-74350000D03*
X99350000Y-74350000D03*
X99350000Y-72150000D03*
%TD*%
D19*
%TO.C,R5*%
X108730000Y-85540000D03*
X107710000Y-85540000D03*
%TD*%
D20*
%TO.C,R4*%
X105710000Y-85540000D03*
X106730000Y-85540000D03*
%TD*%
D21*
%TO.C,R1*%
X125500000Y-79740000D03*
X125500000Y-80760000D03*
%TD*%
D22*
%TO.C,R3*%
X119010000Y-73170000D03*
X119010000Y-72150000D03*
%TD*%
%TO.C,R2*%
X99750000Y-68260000D03*
X99750000Y-67240000D03*
%TD*%
D23*
%TO.C,J1*%
X125150000Y-74550000D03*
X125150000Y-73900000D03*
X125150000Y-73250000D03*
X125150000Y-72600000D03*
X125150000Y-71950000D03*
%TD*%
D24*
%TO.C,FB1*%
X104250000Y-79250000D03*
X104250000Y-80825000D03*
%TD*%
%TO.C,D1*%
X125500000Y-82462500D03*
X125500000Y-84037500D03*
%TD*%
D25*
%TO.C,C2*%
X122250000Y-84200000D03*
X122250000Y-82300000D03*
%TD*%
D26*
%TO.C,C1*%
X116750000Y-77000000D03*
X118650000Y-77000000D03*
%TD*%
D17*
%TO.C,C12*%
X100850000Y-72730000D03*
X100850000Y-71770000D03*
%TD*%
D27*
%TO.C,C11*%
X106270000Y-81000000D03*
X107230000Y-81000000D03*
%TD*%
D12*
%TO.C,C10*%
X102700000Y-80600000D03*
X101740000Y-80600000D03*
%TD*%
%TO.C,C9*%
X102670000Y-79180000D03*
X101710000Y-79180000D03*
%TD*%
D17*
%TO.C,C8*%
X102750000Y-75960000D03*
X102750000Y-75000000D03*
%TD*%
D28*
%TO.C,C3*%
X105725000Y-66750000D03*
X107275000Y-66750000D03*
%TD*%
D17*
%TO.C,C4*%
X103000000Y-71730000D03*
X103000000Y-70770000D03*
%TD*%
D29*
%TO.C,C6*%
X115250000Y-71750000D03*
X115250000Y-72710000D03*
%TD*%
D27*
%TO.C,C7*%
X106020000Y-68500000D03*
X106980000Y-68500000D03*
%TD*%
M02*
