%TF.GenerationSoftware,KiCad,Pcbnew,9.0.3*%
%TF.CreationDate,2026-05-24T18:33:45+06:00*%
%TF.ProjectId,STM32_1st_Project,53544d33-325f-4317-9374-5f50726f6a65,rev?*%
%TF.SameCoordinates,Original*%
%TF.FileFunction,Copper,L1,Top*%
%TF.FilePolarity,Positive*%
%FSLAX46Y46*%
G04 Gerber Fmt 4.6, Leading zero omitted, Abs format (unit mm)*
G04 Created by KiCad (PCBNEW 9.0.3) date 2026-05-24 18:33:45*
%MOMM*%
%LPD*%
G01*
G04 APERTURE LIST*
G04 Aperture macros list*
%AMRoundRect*
0 Rectangle with rounded corners*
0 $1 Rounding radius*
0 $2 $3 $4 $5 $6 $7 $8 $9 X,Y pos of 4 corners*
0 Add a 4 corners polygon primitive as box body*
4,1,4,$2,$3,$4,$5,$6,$7,$8,$9,$2,$3,0*
0 Add four circle primitives for the rounded corners*
1,1,$1+$1,$2,$3*
1,1,$1+$1,$4,$5*
1,1,$1+$1,$6,$7*
1,1,$1+$1,$8,$9*
0 Add four rect primitives between the rounded corners*
20,1,$1+$1,$2,$3,$4,$5,0*
20,1,$1+$1,$4,$5,$6,$7,0*
20,1,$1+$1,$6,$7,$8,$9,0*
20,1,$1+$1,$8,$9,$2,$3,0*%
G04 Aperture macros list end*
%TA.AperFunction,SMDPad,CuDef*%
%ADD10R,0.800000X1.000000*%
%TD*%
%TA.AperFunction,SMDPad,CuDef*%
%ADD11R,1.500000X0.700000*%
%TD*%
%TA.AperFunction,SMDPad,CuDef*%
%ADD12RoundRect,0.140000X0.140000X0.170000X-0.140000X0.170000X-0.140000X-0.170000X0.140000X-0.170000X0*%
%TD*%
%TA.AperFunction,SMDPad,CuDef*%
%ADD13RoundRect,0.075000X-0.075000X-0.662500X0.075000X-0.662500X0.075000X0.662500X-0.075000X0.662500X0*%
%TD*%
%TA.AperFunction,SMDPad,CuDef*%
%ADD14RoundRect,0.075000X-0.662500X-0.075000X0.662500X-0.075000X0.662500X0.075000X-0.662500X0.075000X0*%
%TD*%
%TA.AperFunction,SMDPad,CuDef*%
%ADD15RoundRect,0.375000X-0.375000X0.625000X-0.375000X-0.625000X0.375000X-0.625000X0.375000X0.625000X0*%
%TD*%
%TA.AperFunction,SMDPad,CuDef*%
%ADD16RoundRect,0.500000X-1.400000X0.500000X-1.400000X-0.500000X1.400000X-0.500000X1.400000X0.500000X0*%
%TD*%
%TA.AperFunction,SMDPad,CuDef*%
%ADD17RoundRect,0.140000X0.170000X-0.140000X0.170000X0.140000X-0.170000X0.140000X-0.170000X-0.140000X0*%
%TD*%
%TA.AperFunction,SMDPad,CuDef*%
%ADD18RoundRect,0.250000X-0.350000X0.450000X-0.350000X-0.450000X0.350000X-0.450000X0.350000X0.450000X0*%
%TD*%
%TA.AperFunction,SMDPad,CuDef*%
%ADD19RoundRect,0.135000X0.135000X0.185000X-0.135000X0.185000X-0.135000X-0.185000X0.135000X-0.185000X0*%
%TD*%
%TA.AperFunction,SMDPad,CuDef*%
%ADD20RoundRect,0.135000X-0.135000X-0.185000X0.135000X-0.185000X0.135000X0.185000X-0.135000X0.185000X0*%
%TD*%
%TA.AperFunction,SMDPad,CuDef*%
%ADD21RoundRect,0.135000X-0.185000X0.135000X-0.185000X-0.135000X0.185000X-0.135000X0.185000X0.135000X0*%
%TD*%
%TA.AperFunction,SMDPad,CuDef*%
%ADD22RoundRect,0.135000X0.185000X-0.135000X0.185000X0.135000X-0.185000X0.135000X-0.185000X-0.135000X0*%
%TD*%
%TA.AperFunction,ComponentPad*%
%ADD23R,1.700000X1.700000*%
%TD*%
%TA.AperFunction,ComponentPad*%
%ADD24C,1.700000*%
%TD*%
%TA.AperFunction,SMDPad,CuDef*%
%ADD25R,1.300000X0.450000*%
%TD*%
%TA.AperFunction,HeatsinkPad*%
%ADD26O,1.800000X1.150000*%
%TD*%
%TA.AperFunction,HeatsinkPad*%
%ADD27O,2.000000X1.450000*%
%TD*%
%TA.AperFunction,SMDPad,CuDef*%
%ADD28RoundRect,0.218750X-0.256250X0.218750X-0.256250X-0.218750X0.256250X-0.218750X0.256250X0.218750X0*%
%TD*%
%TA.AperFunction,SMDPad,CuDef*%
%ADD29RoundRect,0.250000X0.475000X-0.250000X0.475000X0.250000X-0.475000X0.250000X-0.475000X-0.250000X0*%
%TD*%
%TA.AperFunction,SMDPad,CuDef*%
%ADD30RoundRect,0.250000X-0.250000X-0.475000X0.250000X-0.475000X0.250000X0.475000X-0.250000X0.475000X0*%
%TD*%
%TA.AperFunction,SMDPad,CuDef*%
%ADD31RoundRect,0.140000X-0.140000X-0.170000X0.140000X-0.170000X0.140000X0.170000X-0.140000X0.170000X0*%
%TD*%
%TA.AperFunction,SMDPad,CuDef*%
%ADD32RoundRect,0.225000X-0.225000X-0.250000X0.225000X-0.250000X0.225000X0.250000X-0.225000X0.250000X0*%
%TD*%
%TA.AperFunction,SMDPad,CuDef*%
%ADD33RoundRect,0.140000X-0.170000X0.140000X-0.170000X-0.140000X0.170000X-0.140000X0.170000X0.140000X0*%
%TD*%
%TA.AperFunction,ViaPad*%
%ADD34C,0.700000*%
%TD*%
%TA.AperFunction,Conductor*%
%ADD35C,0.500000*%
%TD*%
%TA.AperFunction,Conductor*%
%ADD36C,0.300000*%
%TD*%
%TA.AperFunction,Conductor*%
%ADD37C,0.200000*%
%TD*%
G04 APERTURE END LIST*
D10*
%TO.P,SW1,*%
%TO.N,*%
X93150000Y-66450000D03*
X90940000Y-66450000D03*
X93150000Y-73750000D03*
X90940000Y-73750000D03*
D11*
%TO.P,SW1,1,A*%
%TO.N,GND*%
X93800000Y-67850000D03*
%TO.P,SW1,2,B*%
%TO.N,/SW_BOOT0*%
X93800000Y-70850000D03*
%TO.P,SW1,3,C*%
%TO.N,+3.3V*%
X93800000Y-72350000D03*
%TD*%
D12*
%TO.P,C5,2*%
%TO.N,GND*%
X111400000Y-80650000D03*
%TO.P,C5,1*%
%TO.N,+3.3V*%
X112360000Y-80650000D03*
%TD*%
D13*
%TO.P,U1,48,VDD*%
%TO.N,+3.3V*%
X106250000Y-70405000D03*
%TO.P,U1,47,VSS*%
%TO.N,GND*%
X106750000Y-70405000D03*
%TO.P,U1,46,PB9*%
%TO.N,unconnected-(U1-PB9-Pad46)*%
X107250000Y-70405000D03*
%TO.P,U1,45,PB8*%
%TO.N,unconnected-(U1-PB8-Pad45)*%
X107750000Y-70405000D03*
%TO.P,U1,44,BOOT0*%
%TO.N,/BOOT0*%
X108250000Y-70405000D03*
%TO.P,U1,43,PB7*%
%TO.N,/USART1_RX*%
X108750000Y-70405000D03*
%TO.P,U1,42,PB6*%
%TO.N,/USART1_TX*%
X109250000Y-70405000D03*
%TO.P,U1,41,PB5*%
%TO.N,unconnected-(U1-PB5-Pad41)*%
X109750000Y-70405000D03*
%TO.P,U1,40,PB4*%
%TO.N,unconnected-(U1-PB4-Pad40)*%
X110250000Y-70405000D03*
%TO.P,U1,39,PB3*%
%TO.N,unconnected-(U1-PB3-Pad39)*%
X110750000Y-70405000D03*
%TO.P,U1,38,PA15*%
%TO.N,unconnected-(U1-PA15-Pad38)*%
X111250000Y-70405000D03*
%TO.P,U1,37,PA14*%
%TO.N,/SWCLK*%
X111750000Y-70405000D03*
D14*
%TO.P,U1,36,VDD*%
%TO.N,+3.3V*%
X113162500Y-71817500D03*
%TO.P,U1,35,VSS*%
%TO.N,GND*%
X113162500Y-72317500D03*
%TO.P,U1,34,PA13*%
%TO.N,/SWDIO*%
X113162500Y-72817500D03*
%TO.P,U1,33,PA12*%
%TO.N,/USB_D+*%
X113162500Y-73317500D03*
%TO.P,U1,32,PA11*%
%TO.N,/USB_D-*%
X113162500Y-73817500D03*
%TO.P,U1,31,PA10*%
%TO.N,unconnected-(U1-PA10-Pad31)*%
X113162500Y-74317500D03*
%TO.P,U1,30,PA9*%
%TO.N,unconnected-(U1-PA9-Pad30)*%
X113162500Y-74817500D03*
%TO.P,U1,29,PA8*%
%TO.N,unconnected-(U1-PA8-Pad29)*%
X113162500Y-75317500D03*
%TO.P,U1,28,PB15*%
%TO.N,unconnected-(U1-PB15-Pad28)*%
X113162500Y-75817500D03*
%TO.P,U1,27,PB14*%
%TO.N,unconnected-(U1-PB14-Pad27)*%
X113162500Y-76317500D03*
%TO.P,U1,26,PB13*%
%TO.N,unconnected-(U1-PB13-Pad26)*%
X113162500Y-76817500D03*
%TO.P,U1,25,PB12*%
%TO.N,unconnected-(U1-PB12-Pad25)*%
X113162500Y-77317500D03*
D13*
%TO.P,U1,24,VDD*%
%TO.N,+3.3V*%
X111750000Y-78730000D03*
%TO.P,U1,23,VSS*%
%TO.N,GND*%
X111250000Y-78730000D03*
%TO.P,U1,22,PB11*%
%TO.N,/I2C2_SDA*%
X110750000Y-78730000D03*
%TO.P,U1,21,PB10*%
%TO.N,/I2C2_SCL*%
X110250000Y-78730000D03*
%TO.P,U1,20,PB2*%
%TO.N,unconnected-(U1-PB2-Pad20)*%
X109750000Y-78730000D03*
%TO.P,U1,19,PB1*%
%TO.N,unconnected-(U1-PB1-Pad19)*%
X109250000Y-78730000D03*
%TO.P,U1,18,PB0*%
%TO.N,unconnected-(U1-PB0-Pad18)*%
X108750000Y-78730000D03*
%TO.P,U1,17,PA7*%
%TO.N,unconnected-(U1-PA7-Pad17)*%
X108250000Y-78730000D03*
%TO.P,U1,16,PA6*%
%TO.N,unconnected-(U1-PA6-Pad16)*%
X107750000Y-78730000D03*
%TO.P,U1,15,PA5*%
%TO.N,unconnected-(U1-PA5-Pad15)*%
X107250000Y-78730000D03*
%TO.P,U1,14,PA4*%
%TO.N,unconnected-(U1-PA4-Pad14)*%
X106750000Y-78730000D03*
%TO.P,U1,13,PA3*%
%TO.N,unconnected-(U1-PA3-Pad13)*%
X106250000Y-78730000D03*
D14*
%TO.P,U1,12,PA2*%
%TO.N,unconnected-(U1-PA2-Pad12)*%
X104837500Y-77317500D03*
%TO.P,U1,11,PA1*%
%TO.N,unconnected-(U1-PA1-Pad11)*%
X104837500Y-76817500D03*
%TO.P,U1,10,PA0*%
%TO.N,unconnected-(U1-PA0-Pad10)*%
X104837500Y-76317500D03*
%TO.P,U1,9,VDDA*%
%TO.N,+3.3VA*%
X104837500Y-75817500D03*
%TO.P,U1,8,VSSA*%
%TO.N,GND*%
X104837500Y-75317500D03*
%TO.P,U1,7,NRST*%
%TO.N,/NRST*%
X104837500Y-74817500D03*
%TO.P,U1,6,PD1*%
%TO.N,/HSE_OUT*%
X104837500Y-74317500D03*
%TO.P,U1,5,PD0*%
%TO.N,/HSE_IN*%
X104837500Y-73817500D03*
%TO.P,U1,4,PC15*%
%TO.N,unconnected-(U1-PC15-Pad4)*%
X104837500Y-73317500D03*
%TO.P,U1,3,PC14*%
%TO.N,unconnected-(U1-PC14-Pad3)*%
X104837500Y-72817500D03*
%TO.P,U1,2,PC13*%
%TO.N,unconnected-(U1-PC13-Pad2)*%
X104837500Y-72317500D03*
%TO.P,U1,1,VBAT*%
%TO.N,+3.3V*%
X104837500Y-71817500D03*
%TD*%
D15*
%TO.P,U2,3,VI*%
%TO.N,VBUS*%
X114950000Y-79350000D03*
D16*
%TO.P,U2,2,VO*%
%TO.N,+3.3V*%
X117250000Y-85650000D03*
D15*
X117250000Y-79350000D03*
%TO.P,U2,1,GND*%
%TO.N,GND*%
X119550000Y-79350000D03*
%TD*%
D17*
%TO.P,C13,2*%
%TO.N,GND*%
X100850000Y-73770000D03*
%TO.P,C13,1*%
%TO.N,/HSE_OUT*%
X100850000Y-74730000D03*
%TD*%
D18*
%TO.P,Y1,1,1*%
%TO.N,/HSE_IN*%
X97650000Y-72150000D03*
%TO.P,Y1,2,2*%
%TO.N,GND*%
X97650000Y-74350000D03*
%TO.P,Y1,3,3*%
%TO.N,/HSE_OUT*%
X99350000Y-74350000D03*
%TO.P,Y1,4,4*%
%TO.N,GND*%
X99350000Y-72150000D03*
%TD*%
D19*
%TO.P,R5,1*%
%TO.N,/I2C2_SDA*%
X108730000Y-85540000D03*
%TO.P,R5,2*%
%TO.N,+3.3V*%
X107710000Y-85540000D03*
%TD*%
D20*
%TO.P,R4,1*%
%TO.N,/I2C2_SCL*%
X105710000Y-85540000D03*
%TO.P,R4,2*%
%TO.N,+3.3V*%
X106730000Y-85540000D03*
%TD*%
D21*
%TO.P,R1,1*%
%TO.N,GND*%
X125500000Y-79740000D03*
%TO.P,R1,2*%
%TO.N,/PWR_LED_K*%
X125500000Y-80760000D03*
%TD*%
D22*
%TO.P,R3,1*%
%TO.N,/USB_D+*%
X119010000Y-73170000D03*
%TO.P,R3,2*%
%TO.N,+3.3V*%
X119010000Y-72150000D03*
%TD*%
%TO.P,R2,1*%
%TO.N,/SW_BOOT0*%
X99750000Y-68260000D03*
%TO.P,R2,2*%
%TO.N,/BOOT0*%
X99750000Y-67240000D03*
%TD*%
D23*
%TO.P,J4,1,Pin_1*%
%TO.N,+3.3V*%
X103190000Y-88500000D03*
D24*
%TO.P,J4,2,Pin_2*%
%TO.N,/I2C2_SCL*%
X105730000Y-88500000D03*
%TO.P,J4,3,Pin_3*%
%TO.N,/I2C2_SDA*%
X108270000Y-88500000D03*
%TO.P,J4,4,Pin_4*%
%TO.N,GND*%
X110810000Y-88500000D03*
%TD*%
D23*
%TO.P,J3,1,Pin_1*%
%TO.N,+3.3V*%
X110620000Y-61630000D03*
D24*
%TO.P,J3,2,Pin_2*%
%TO.N,/USART1_TX*%
X108080000Y-61630000D03*
%TO.P,J3,3,Pin_3*%
%TO.N,/USART1_RX*%
X105540000Y-61630000D03*
%TO.P,J3,4,Pin_4*%
%TO.N,GND*%
X103000000Y-61630000D03*
%TD*%
D23*
%TO.P,J2,1,Pin_1*%
%TO.N,+3.3V*%
X123300000Y-61790000D03*
D24*
%TO.P,J2,2,Pin_2*%
%TO.N,/SWDIO*%
X120760000Y-61790000D03*
%TO.P,J2,3,Pin_3*%
%TO.N,/SWCLK*%
X118220000Y-61790000D03*
%TO.P,J2,4,Pin_4*%
%TO.N,GND*%
X115680000Y-61790000D03*
%TD*%
D25*
%TO.P,J1,1,VBUS*%
%TO.N,VBUS*%
X125150000Y-74550000D03*
%TO.P,J1,2,D-*%
%TO.N,/USB_D-*%
X125150000Y-73900000D03*
%TO.P,J1,3,D+*%
%TO.N,/USB_D+*%
X125150000Y-73250000D03*
%TO.P,J1,4,ID*%
%TO.N,unconnected-(J1-ID-Pad4)*%
X125150000Y-72600000D03*
%TO.P,J1,5,GND*%
%TO.N,GND*%
X125150000Y-71950000D03*
D26*
%TO.P,J1,6,Shield*%
%TO.N,unconnected-(J1-Shield-Pad6)_3*%
X129000000Y-77125000D03*
D27*
%TO.N,unconnected-(J1-Shield-Pad6)*%
X125200000Y-76975000D03*
%TO.N,unconnected-(J1-Shield-Pad6)_2*%
X125200000Y-69525000D03*
D26*
%TO.N,unconnected-(J1-Shield-Pad6)_1*%
X129000000Y-69375000D03*
%TD*%
D28*
%TO.P,FB1,1*%
%TO.N,+3.3VA*%
X104250000Y-79250000D03*
%TO.P,FB1,2*%
%TO.N,+3.3V*%
X104250000Y-80825000D03*
%TD*%
%TO.P,D1,1,K*%
%TO.N,/PWR_LED_K*%
X125500000Y-82462500D03*
%TO.P,D1,2,A*%
%TO.N,+3.3V*%
X125500000Y-84037500D03*
%TD*%
D29*
%TO.P,C2,1*%
%TO.N,+3.3V*%
X122250000Y-84200000D03*
%TO.P,C2,2*%
%TO.N,GND*%
X122250000Y-82300000D03*
%TD*%
D30*
%TO.P,C1,1*%
%TO.N,VBUS*%
X116750000Y-77000000D03*
%TO.P,C1,2*%
%TO.N,GND*%
X118650000Y-77000000D03*
%TD*%
D17*
%TO.P,C12,1*%
%TO.N,/HSE_IN*%
X100850000Y-72730000D03*
%TO.P,C12,2*%
%TO.N,GND*%
X100850000Y-71770000D03*
%TD*%
D31*
%TO.P,C11,1*%
%TO.N,/NRST*%
X106270000Y-81000000D03*
%TO.P,C11,2*%
%TO.N,GND*%
X107230000Y-81000000D03*
%TD*%
D12*
%TO.P,C10,1*%
%TO.N,+3.3V*%
X102700000Y-80600000D03*
%TO.P,C10,2*%
%TO.N,GND*%
X101740000Y-80600000D03*
%TD*%
%TO.P,C9,1*%
%TO.N,+3.3VA*%
X102670000Y-79180000D03*
%TO.P,C9,2*%
%TO.N,GND*%
X101710000Y-79180000D03*
%TD*%
D17*
%TO.P,C8,1*%
%TO.N,+3.3VA*%
X102750000Y-75960000D03*
%TO.P,C8,2*%
%TO.N,GND*%
X102750000Y-75000000D03*
%TD*%
D32*
%TO.P,C3,1*%
%TO.N,+3.3V*%
X105725000Y-66750000D03*
%TO.P,C3,2*%
%TO.N,GND*%
X107275000Y-66750000D03*
%TD*%
D17*
%TO.P,C4,1*%
%TO.N,+3.3V*%
X103000000Y-71730000D03*
%TO.P,C4,2*%
%TO.N,GND*%
X103000000Y-70770000D03*
%TD*%
D33*
%TO.P,C6,1*%
%TO.N,+3.3V*%
X115250000Y-71750000D03*
%TO.P,C6,2*%
%TO.N,GND*%
X115250000Y-72710000D03*
%TD*%
D31*
%TO.P,C7,1*%
%TO.N,+3.3V*%
X106020000Y-68500000D03*
%TO.P,C7,2*%
%TO.N,GND*%
X106980000Y-68500000D03*
%TD*%
D34*
%TO.N,+3.3V*%
X109431619Y-84498332D03*
X108030000Y-84426696D03*
%TO.N,GND*%
X106780000Y-71760000D03*
%TO.N,+3.3V*%
X106410000Y-86650000D03*
X105010000Y-86650000D03*
%TO.N,GND*%
X99910000Y-70570000D03*
X98510000Y-70700000D03*
X97660000Y-76010000D03*
X119940000Y-81150000D03*
X118990000Y-81110000D03*
X122290000Y-80960000D03*
X119930000Y-77370000D03*
X119950000Y-76530000D03*
X123940000Y-71900000D03*
X124550000Y-79720000D03*
X116310000Y-72670000D03*
X101690000Y-73440000D03*
X100850000Y-70930000D03*
X95950000Y-67750000D03*
X107240000Y-80240000D03*
X103010000Y-69840000D03*
X111250000Y-77310000D03*
X101730000Y-81630000D03*
X101690000Y-78170000D03*
X106500000Y-75440000D03*
%TD*%
D35*
%TO.N,/PWR_LED_K*%
X125500000Y-80760000D02*
X125500000Y-82462500D01*
D36*
%TO.N,/HSE_OUT*%
X102380000Y-73870000D02*
X101520000Y-74730000D01*
X102910000Y-73870000D02*
X102380000Y-73870000D01*
X101520000Y-74730000D02*
X100850000Y-74730000D01*
X103357500Y-74317500D02*
X102910000Y-73870000D01*
X104837500Y-74317500D02*
X103357500Y-74317500D01*
%TO.N,GND*%
X101690000Y-73440000D02*
X101360000Y-73770000D01*
X101360000Y-73770000D02*
X100850000Y-73770000D01*
X106310000Y-75440000D02*
X106187500Y-75317500D01*
X106500000Y-75440000D02*
X106310000Y-75440000D01*
X106187500Y-75317500D02*
X104837500Y-75317500D01*
D35*
X95950000Y-67750000D02*
X93905000Y-67750000D01*
D36*
%TO.N,+3.3V*%
X112268332Y-84498332D02*
X112360000Y-84590000D01*
X109431619Y-84498332D02*
X112268332Y-84498332D01*
D35*
X112360000Y-84590000D02*
X112360000Y-86130000D01*
D36*
X107710000Y-84746696D02*
X108030000Y-84426696D01*
X107710000Y-85540000D02*
X107710000Y-84746696D01*
D35*
X107710000Y-85540000D02*
X106730000Y-85540000D01*
X127187500Y-84037500D02*
X125500000Y-84037500D01*
X127480000Y-84330000D02*
X127187500Y-84037500D01*
X127480000Y-69700000D02*
X127480000Y-84330000D01*
X123310000Y-65530000D02*
X127480000Y-69700000D01*
X123310000Y-65530000D02*
X123310000Y-61500000D01*
D36*
%TO.N,GND*%
X106750000Y-71730000D02*
X106780000Y-71760000D01*
X106750000Y-70405000D02*
X106750000Y-71730000D01*
D35*
%TO.N,+3.3V*%
X121761000Y-60251000D02*
X123300000Y-61790000D01*
X111999000Y-60251000D02*
X121761000Y-60251000D01*
X110620000Y-61630000D02*
X111999000Y-60251000D01*
D36*
%TO.N,/BOOT0*%
X99750000Y-66330000D02*
X99750000Y-67240000D01*
X100590000Y-65490000D02*
X99750000Y-66330000D01*
X108840000Y-66700000D02*
X108840000Y-65690000D01*
X107880000Y-67660000D02*
X108840000Y-66700000D01*
X107900000Y-68870000D02*
X107900000Y-67860000D01*
X107900000Y-67860000D02*
X107880000Y-67840000D01*
X107880000Y-67840000D02*
X107880000Y-67660000D01*
X108250000Y-69220000D02*
X107900000Y-68870000D01*
X108250000Y-70405000D02*
X108250000Y-69220000D01*
X108640000Y-65490000D02*
X100590000Y-65490000D01*
X108840000Y-65690000D02*
X108640000Y-65490000D01*
D35*
%TO.N,+3.3V*%
X103460000Y-66750000D02*
X105725000Y-66750000D01*
X102940000Y-68280000D02*
X102940000Y-67270000D01*
X101470000Y-69750000D02*
X102940000Y-68280000D01*
X100370000Y-69750000D02*
X101470000Y-69750000D01*
X100370000Y-69750000D02*
X101310000Y-69750000D01*
X102940000Y-67270000D02*
X103460000Y-66750000D01*
X106730000Y-86590000D02*
X106730000Y-85540000D01*
X106410000Y-86650000D02*
X106670000Y-86650000D01*
X106670000Y-86650000D02*
X106730000Y-86590000D01*
X95370000Y-82900000D02*
X95370000Y-72250000D01*
X97950000Y-85480000D02*
X95370000Y-82900000D01*
X99130000Y-86650000D02*
X97960000Y-85480000D01*
X105010000Y-86650000D02*
X99130000Y-86650000D01*
X97960000Y-85480000D02*
X97950000Y-85480000D01*
X93905000Y-72250000D02*
X95370000Y-72250000D01*
X104025000Y-80600000D02*
X104250000Y-80825000D01*
X102700000Y-80600000D02*
X104025000Y-80600000D01*
X104250000Y-82480000D02*
X104250000Y-80825000D01*
X104350000Y-82580000D02*
X104250000Y-82480000D01*
X103190000Y-83740000D02*
X104350000Y-82580000D01*
X103190000Y-88500000D02*
X103190000Y-83740000D01*
%TO.N,+3.3VA*%
X104180000Y-79180000D02*
X104250000Y-79250000D01*
X102670000Y-79180000D02*
X104180000Y-79180000D01*
X102750000Y-79100000D02*
X102670000Y-79180000D01*
X102750000Y-75960000D02*
X102750000Y-79100000D01*
%TO.N,+3.3V*%
X119010000Y-70080000D02*
X123310000Y-65780000D01*
X123310000Y-65780000D02*
X123310000Y-65530000D01*
X119010000Y-72150000D02*
X119010000Y-70080000D01*
X117480000Y-72150000D02*
X119010000Y-72150000D01*
X117080000Y-71750000D02*
X117480000Y-72150000D01*
X115250000Y-71750000D02*
X117080000Y-71750000D01*
%TO.N,GND*%
X99350000Y-70990000D02*
X99350000Y-72150000D01*
X99770000Y-70570000D02*
X99350000Y-70990000D01*
X99910000Y-70570000D02*
X99770000Y-70570000D01*
X99350000Y-71170000D02*
X99350000Y-72150000D01*
X98510000Y-70700000D02*
X98880000Y-70700000D01*
X98880000Y-70700000D02*
X99350000Y-71170000D01*
X97650000Y-76000000D02*
X97660000Y-76010000D01*
X97650000Y-74350000D02*
X97650000Y-76000000D01*
%TO.N,/SW_BOOT0*%
X94590000Y-70750000D02*
X97080000Y-68260000D01*
X97080000Y-68260000D02*
X99750000Y-68260000D01*
X93905000Y-70750000D02*
X94590000Y-70750000D01*
%TO.N,+3.3V*%
X101310000Y-70229682D02*
X102810318Y-71730000D01*
X101310000Y-69750000D02*
X101310000Y-70229682D01*
X102810318Y-71730000D02*
X103000000Y-71730000D01*
X97870000Y-69750000D02*
X100370000Y-69750000D01*
X95370000Y-72250000D02*
X97870000Y-69750000D01*
X124020000Y-89140000D02*
X124040000Y-89160000D01*
X115370000Y-89140000D02*
X124020000Y-89140000D01*
X122250000Y-84200000D02*
X123970000Y-84200000D01*
X112360000Y-86130000D02*
X115370000Y-89140000D01*
X124040000Y-84270000D02*
X123970000Y-84200000D01*
X112360000Y-80650000D02*
X112360000Y-84590000D01*
X124040000Y-89160000D02*
X124040000Y-84270000D01*
X125337500Y-84200000D02*
X125500000Y-84037500D01*
X123970000Y-84200000D02*
X125337500Y-84200000D01*
D36*
%TO.N,GND*%
X123990000Y-71950000D02*
X123940000Y-71900000D01*
X125150000Y-71950000D02*
X123990000Y-71950000D01*
X124570000Y-79740000D02*
X124550000Y-79720000D01*
X125500000Y-79740000D02*
X124570000Y-79740000D01*
X116270000Y-72710000D02*
X116310000Y-72670000D01*
X115250000Y-72710000D02*
X116270000Y-72710000D01*
X100850000Y-71770000D02*
X100850000Y-70930000D01*
%TO.N,/NRST*%
X106270000Y-80590000D02*
X106270000Y-81000000D01*
X105320000Y-79640000D02*
X106270000Y-80590000D01*
X105320000Y-78240000D02*
X105320000Y-79640000D01*
X107510000Y-76050000D02*
X105320000Y-78240000D01*
X107510000Y-74200000D02*
X107510000Y-76050000D01*
X106389346Y-74200000D02*
X107510000Y-74200000D01*
X105771846Y-74817500D02*
X106389346Y-74200000D01*
X104837500Y-74817500D02*
X105771846Y-74817500D01*
D35*
%TO.N,GND*%
X107230000Y-80250000D02*
X107240000Y-80240000D01*
X107230000Y-81000000D02*
X107230000Y-80250000D01*
X103000000Y-69850000D02*
X103010000Y-69840000D01*
X103000000Y-70770000D02*
X103000000Y-69850000D01*
D36*
X111250000Y-78730000D02*
X111250000Y-77310000D01*
D35*
X101740000Y-81620000D02*
X101730000Y-81630000D01*
X101740000Y-80600000D02*
X101740000Y-81620000D01*
X101710000Y-78190000D02*
X101690000Y-78170000D01*
X101710000Y-79180000D02*
X101710000Y-78190000D01*
D36*
%TO.N,/I2C2_SCL*%
X105710000Y-88480000D02*
X105730000Y-88500000D01*
X105710000Y-85540000D02*
X105710000Y-88480000D01*
X105680000Y-83360000D02*
X105670000Y-83350000D01*
X105710000Y-83390000D02*
X105710000Y-85540000D01*
X106941479Y-83360000D02*
X105680000Y-83360000D01*
X110250000Y-80051479D02*
X106941479Y-83360000D01*
X110250000Y-78730000D02*
X110250000Y-80051479D01*
X105670000Y-83350000D02*
X105710000Y-83390000D01*
%TO.N,/I2C2_SDA*%
X110660000Y-80350000D02*
X110660000Y-82280000D01*
X110750000Y-80260000D02*
X110660000Y-80350000D01*
X110750000Y-78730000D02*
X110750000Y-80260000D01*
X108770000Y-84210000D02*
X108730000Y-84250000D01*
X110660000Y-82280000D02*
X108770000Y-84170000D01*
X108770000Y-84170000D02*
X108770000Y-84210000D01*
X108730000Y-84250000D02*
X108730000Y-85540000D01*
X108730000Y-88040000D02*
X108270000Y-88500000D01*
X108730000Y-85540000D02*
X108730000Y-88040000D01*
%TO.N,+3.3V*%
X112090000Y-79990000D02*
X111750000Y-79650000D01*
X111750000Y-79650000D02*
X111750000Y-78730000D01*
X112180000Y-80730000D02*
X112090000Y-80640000D01*
X112090000Y-80640000D02*
X112090000Y-79990000D01*
X112190000Y-80730000D02*
X112180000Y-80730000D01*
%TO.N,GND*%
X111250000Y-80520000D02*
X111250000Y-78730000D01*
X111230000Y-80540000D02*
X111250000Y-80520000D01*
X111230000Y-80730000D02*
X111230000Y-80540000D01*
%TO.N,/USART1_RX*%
X105480000Y-64190000D02*
X105480000Y-61500000D01*
X109670000Y-64310000D02*
X105600000Y-64310000D01*
X105600000Y-64310000D02*
X105480000Y-64190000D01*
X109660000Y-67600000D02*
X109660000Y-64320000D01*
X108750000Y-68510000D02*
X109660000Y-67600000D01*
X109660000Y-64320000D02*
X109670000Y-64310000D01*
X108750000Y-70405000D02*
X108750000Y-68510000D01*
%TO.N,/USART1_TX*%
X108240000Y-61720000D02*
X108020000Y-61500000D01*
X108240000Y-63310000D02*
X108240000Y-61720000D01*
X108260000Y-63330000D02*
X108240000Y-63310000D01*
X110960000Y-63330000D02*
X108260000Y-63330000D01*
X110960000Y-67810000D02*
X110960000Y-63330000D01*
X109250000Y-69520000D02*
X110960000Y-67810000D01*
X109250000Y-70405000D02*
X109250000Y-69520000D01*
%TO.N,/SWDIO*%
X120850000Y-61580000D02*
X120770000Y-61500000D01*
X120850000Y-62740000D02*
X120850000Y-61580000D01*
X111950000Y-72820000D02*
X111950000Y-71640000D01*
X111950000Y-71640000D02*
X120850000Y-62740000D01*
X113162500Y-72817500D02*
X111952500Y-72817500D01*
X111952500Y-72817500D02*
X111950000Y-72820000D01*
%TO.N,/SWCLK*%
X117960000Y-61770000D02*
X118230000Y-61500000D01*
X117960000Y-63110000D02*
X117960000Y-61770000D01*
X111750000Y-69320000D02*
X117960000Y-63110000D01*
X111750000Y-70405000D02*
X111750000Y-69320000D01*
D37*
%TO.N,/USB_D+*%
X124725000Y-73250000D02*
X125150000Y-73250000D01*
X124625000Y-73350000D02*
X124725000Y-73250000D01*
X124241711Y-73350000D02*
X124625000Y-73350000D01*
X124234211Y-73342500D02*
X124241711Y-73350000D01*
X114293751Y-73342500D02*
X124234211Y-73342500D01*
X114268751Y-73317500D02*
X114293751Y-73342500D01*
%TO.N,/USB_D-*%
X124725000Y-73900000D02*
X125150000Y-73900000D01*
X124625000Y-73800000D02*
X124725000Y-73900000D01*
X124069505Y-73800000D02*
X124625000Y-73800000D01*
%TO.N,/USB_D+*%
X113162500Y-73317500D02*
X114268751Y-73317500D01*
%TO.N,/USB_D-*%
X124062005Y-73792500D02*
X124069505Y-73800000D01*
X114293751Y-73792500D02*
X124062005Y-73792500D01*
X113162500Y-73817500D02*
X114268751Y-73817500D01*
X114268751Y-73817500D02*
X114293751Y-73792500D01*
D36*
%TO.N,/HSE_IN*%
X98750000Y-73250000D02*
X97650000Y-72150000D01*
X100250000Y-73250000D02*
X98750000Y-73250000D01*
X100770000Y-72730000D02*
X100250000Y-73250000D01*
X100850000Y-72730000D02*
X100770000Y-72730000D01*
X102730000Y-72730000D02*
X100850000Y-72730000D01*
X104837500Y-73817500D02*
X103817500Y-73817500D01*
X103817500Y-73817500D02*
X102730000Y-72730000D01*
%TO.N,/HSE_OUT*%
X99730000Y-74730000D02*
X99350000Y-74350000D01*
X100850000Y-74730000D02*
X99730000Y-74730000D01*
%TO.N,+3.3V*%
X114250000Y-71750000D02*
X114182500Y-71817500D01*
X114182500Y-71817500D02*
X113162500Y-71817500D01*
X115250000Y-71750000D02*
X114250000Y-71750000D01*
%TO.N,+3.3VA*%
X103790000Y-75960000D02*
X102750000Y-75960000D01*
X103932500Y-75817500D02*
X103790000Y-75960000D01*
X104837500Y-75817500D02*
X103932500Y-75817500D01*
%TO.N,GND*%
X103500000Y-75000000D02*
X102750000Y-75000000D01*
X103817500Y-75317500D02*
X103500000Y-75000000D01*
X104837500Y-75317500D02*
X103817500Y-75317500D01*
%TO.N,+3.3V*%
X103087500Y-71817500D02*
X103000000Y-71730000D01*
X104837500Y-71817500D02*
X103087500Y-71817500D01*
%TO.N,GND*%
X114460000Y-72710000D02*
X115250000Y-72710000D01*
X114067500Y-72317500D02*
X114460000Y-72710000D01*
X113162500Y-72317500D02*
X114067500Y-72317500D01*
D35*
X107275000Y-67725000D02*
X107275000Y-66750000D01*
X106980000Y-68020000D02*
X107275000Y-67725000D01*
X106980000Y-68500000D02*
X106980000Y-68020000D01*
%TO.N,+3.3V*%
X105725000Y-67725000D02*
X105725000Y-66750000D01*
X106020000Y-68020000D02*
X105725000Y-67725000D01*
X106020000Y-68500000D02*
X106020000Y-68020000D01*
D36*
%TO.N,GND*%
X106750000Y-69500000D02*
X106980000Y-69270000D01*
X106750000Y-70405000D02*
X106750000Y-69500000D01*
X106980000Y-69270000D02*
X106980000Y-68500000D01*
%TO.N,+3.3V*%
X106250000Y-69500000D02*
X106020000Y-69270000D01*
X106250000Y-70405000D02*
X106250000Y-69500000D01*
X106020000Y-69270000D02*
X106020000Y-68500000D01*
%TD*%
%TA.AperFunction,Conductor*%
%TO.N,GND*%
G36*
X119563954Y-76015394D02*
G01*
X120885770Y-76019604D01*
X120952745Y-76039502D01*
X120998332Y-76092451D01*
X121009372Y-76144229D01*
X120989999Y-79979999D01*
X120990000Y-79979999D01*
X120990000Y-79980000D01*
X122866354Y-79998763D01*
X122933192Y-80019117D01*
X122978417Y-80072376D01*
X122989110Y-80123649D01*
X122980000Y-81390000D01*
X123174705Y-81396084D01*
X123241093Y-81417852D01*
X123285176Y-81472060D01*
X123294718Y-81525247D01*
X123235084Y-82939413D01*
X123212592Y-83005564D01*
X123157908Y-83049053D01*
X123109319Y-83058175D01*
X118721665Y-82991839D01*
X118654931Y-82971143D01*
X118609980Y-82917653D01*
X118599541Y-82868320D01*
X118589002Y-80072376D01*
X118581583Y-78103946D01*
X118021409Y-77770778D01*
X117973852Y-77719590D01*
X117960798Y-77665007D01*
X117950878Y-76135457D01*
X117970127Y-76068291D01*
X118022633Y-76022195D01*
X118075270Y-76010654D01*
X119563954Y-76015394D01*
G37*
%TD.AperFunction*%
%TD*%
%TA.AperFunction,Conductor*%
%TO.N,VBUS*%
G36*
X124243807Y-74297973D02*
G01*
X124264969Y-74314940D01*
X124327235Y-74377206D01*
X124430009Y-74422585D01*
X124455135Y-74425500D01*
X125786000Y-74425499D01*
X125794685Y-74428049D01*
X125803647Y-74426761D01*
X125827687Y-74437739D01*
X125853039Y-74445184D01*
X125858966Y-74452024D01*
X125867203Y-74455786D01*
X125881490Y-74478018D01*
X125898794Y-74497987D01*
X125901081Y-74508502D01*
X125904977Y-74514564D01*
X125910000Y-74549499D01*
X125910000Y-74758032D01*
X125890315Y-74825071D01*
X125837511Y-74870826D01*
X125788049Y-74882015D01*
X117438748Y-75020000D01*
X117438748Y-77782755D01*
X117419063Y-77849794D01*
X117366259Y-77895549D01*
X117311547Y-77906714D01*
X115890000Y-77870000D01*
X115909082Y-80465088D01*
X115889891Y-80532271D01*
X115837424Y-80578413D01*
X115785085Y-80590000D01*
X114131647Y-80590000D01*
X114064608Y-80570315D01*
X114018853Y-80517511D01*
X114007670Y-80468375D01*
X113962501Y-78110565D01*
X113980898Y-78043161D01*
X114032816Y-77996403D01*
X114090518Y-77984256D01*
X114880000Y-78010000D01*
X115882772Y-75974669D01*
X115900786Y-75947705D01*
X117283332Y-74371796D01*
X117342340Y-74334384D01*
X117375598Y-74329577D01*
X123899929Y-74280000D01*
X123900086Y-74279999D01*
X124176672Y-74278623D01*
X124243807Y-74297973D01*
G37*
%TD.AperFunction*%
%TD*%
%TA.AperFunction,Conductor*%
%TO.N,+3.3V*%
G36*
X117976697Y-78289307D02*
G01*
X118043624Y-78309368D01*
X118089082Y-78362428D01*
X118100000Y-78413305D01*
X118100000Y-80586941D01*
X118099849Y-80593057D01*
X117998997Y-82635316D01*
X117980000Y-83020000D01*
X118010000Y-83550000D01*
X122917972Y-83628059D01*
X122984690Y-83648807D01*
X123029599Y-83702332D01*
X123040000Y-83752043D01*
X123040000Y-84900999D01*
X123020315Y-84968038D01*
X122967511Y-85013793D01*
X122911100Y-85024902D01*
X121270000Y-84959999D01*
X121270000Y-86776000D01*
X121250315Y-86843039D01*
X121197511Y-86888794D01*
X121146000Y-86900000D01*
X114864360Y-86900000D01*
X114797321Y-86880315D01*
X114751566Y-86827511D01*
X114741622Y-86758353D01*
X114741779Y-86757293D01*
X114849245Y-86053101D01*
X115100000Y-84410000D01*
X115335995Y-82635315D01*
X115364345Y-82571456D01*
X115422719Y-82533061D01*
X115456211Y-82527691D01*
X116270000Y-82510000D01*
X116318543Y-78403222D01*
X116339018Y-78336422D01*
X116392359Y-78291295D01*
X116443229Y-78280692D01*
X117976697Y-78289307D01*
G37*
%TD.AperFunction*%
%TD*%
M02*
