M48
; DRILL file {KiCad 9.0.3} date 2026-05-24T18:29:38+0600
; FORMAT={-:-/ absolute / metric / decimal}
; #@! TF.CreationDate,2026-05-24T18:29:38+06:00
; #@! TF.GenerationSoftware,Kicad,Pcbnew,9.0.3
; #@! TF.FileFunction,Plated,1,2,PTH
FMAT,2
METRIC
; #@! TA.AperFunction,Plated,PTH,ViaDrill
T1C0.300
; #@! TA.AperFunction,Plated,PTH,ComponentDrill
T2C0.550
; #@! TA.AperFunction,Plated,PTH,ComponentDrill
T3C0.850
; #@! TA.AperFunction,Plated,PTH,ComponentDrill
T4C1.000
%
G90
G05
T1
X95.95Y-67.75
X97.66Y-76.01
X98.51Y-70.7
X99.91Y-70.57
X100.85Y-70.93
X101.69Y-73.44
X101.69Y-78.17
X101.73Y-81.63
X103.01Y-69.84
X105.01Y-86.65
X106.41Y-86.65
X106.5Y-75.44
X106.78Y-71.76
X107.24Y-80.24
X108.03Y-84.427
X109.432Y-84.498
X111.25Y-77.31
X116.31Y-72.67
X118.99Y-81.11
X119.93Y-77.37
X119.94Y-81.15
X119.95Y-76.53
X122.29Y-80.96
X123.94Y-71.9
X124.55Y-79.72
T4
X103.0Y-61.63
X103.19Y-88.5
X105.54Y-61.63
X105.73Y-88.5
X108.08Y-61.63
X108.27Y-88.5
X110.62Y-61.63
X110.81Y-88.5
X115.68Y-61.79
X118.22Y-61.79
X120.76Y-61.79
X123.3Y-61.79
T2
G00X128.675Y-69.375
M15
G01X129.325Y-69.375
M16
G05
G00X128.675Y-77.125
M15
G01X129.325Y-77.125
M16
G05
T3
G00X124.925Y-69.525
M15
G01X125.475Y-69.525
M16
G05
G00X124.925Y-76.975
M15
G01X125.475Y-76.975
M16
G05
M30
